<?xml version="1.0" standalone="no"?>
<!DOCTYPE svg PUBLIC "-//W3C//DTD SVG 20010904//EN"
 "http://www.w3.org/TR/2001/REC-SVG-20010904/DTD/svg10.dtd">
<svg version="1.0" xmlns="http://www.w3.org/2000/svg"
 width="360.000000pt" height="360.000000pt" viewBox="0 0 360.000000 360.000000"
 preserveAspectRatio="xMidYMid meet">

<g transform="translate(0.000000,360.000000) scale(0.100000,-0.100000)"
fill="#000000" stroke="none">
<path d="M820 3117 c-271 -91 -427 -389 -345 -661 38 -125 61 -152 450 -541
394 -395 414 -411 550 -451 170 -50 395 7 514 130 l35 36 -61 61 -61 62 -44
-36 c-77 -63 -151 -91 -243 -91 -69 0 -89 5 -145 32 -58 27 -106 72 -422 389
-298 299 -361 367 -382 413 -64 140 -36 291 73 400 74 74 126 94 246 94 159 1
151 6 556 -399 189 -189 349 -345 354 -345 6 0 37 27 70 60 l60 60 -349 349
c-363 363 -403 396 -525 438 -91 31 -238 31 -331 0z"/>
<path d="M1915 2139 c-107 -13 -246 -81 -312 -151 l-23 -24 64 -63 65 -64 46
41 c65 58 141 84 238 84 140 0 146 -4 558 -417 419 -418 414 -412 414 -565 0
-84 -3 -102 -28 -152 -36 -74 -119 -150 -195 -178 -76 -29 -174 -29 -256 1
-58 21 -81 42 -416 376 -196 194 -360 353 -366 353 -15 0 -114 -104 -114 -120
0 -8 159 -172 353 -365 376 -374 403 -396 532 -430 78 -20 217 -19 286 1 188
56 331 203 374 385 30 128 16 250 -41 369 -34 70 -61 99 -398 438 -226 227
-383 377 -421 402 -100 64 -237 95 -360 79z"/>
</g>
</svg>
