<?xml version="1.0" standalone="no"?>
<!DOCTYPE svg PUBLIC "-//W3C//DTD SVG 20010904//EN"
 "http://www.w3.org/TR/2001/REC-SVG-20010904/DTD/svg10.dtd">
<svg version="1.0" xmlns="http://www.w3.org/2000/svg"
 width="239.000000pt" height="211.000000pt" viewBox="0 0 239.000000 211.000000"
 preserveAspectRatio="xMidYMid meet">

<g transform="translate(0.000000,211.000000) scale(0.100000,-0.100000)"
fill="#000000" stroke="none">
<path d="M1133 1528 c-326 -326 -474 -481 -478 -500 -10 -42 18 -88 103 -169
42 -40 170 -165 283 -276 260 -257 233 -251 403 -86 437 426 826 821 832 846
3 15 3 39 -1 55 -7 28 -484 517 -559 573 -26 19 -51 29 -75 29 -34 0 -61 -25
-508 -472z m1051 -168 c-4 -8 -208 -214 -453 -457 l-446 -443 -263 263 -262
263 356 79 c197 44 365 87 376 95 13 11 37 101 93 350 41 184 77 346 81 359 5
22 30 0 265 -235 185 -185 258 -264 253 -274z m-683 169 l-68 -304 -294 -67
c-162 -37 -301 -67 -309 -67 -8 -1 154 168 360 374 206 206 375 373 377 371 1
-1 -28 -139 -66 -307z"/>
<path d="M348 563 c-245 -244 -263 -269 -217 -293 11 -6 24 -10 29 -8 14 5
470 459 480 478 11 21 -14 60 -38 60 -9 0 -123 -107 -254 -237z"/>
<path d="M614 449 c-108 -107 -164 -170 -164 -184 0 -25 18 -45 40 -45 9 0 92
76 184 170 165 165 169 170 154 192 -9 13 -23 25 -33 26 -11 3 -73 -52 -181
-159z"/>
<path d="M877 332 c-90 -90 -105 -122 -68 -142 11 -5 23 -10 27 -10 3 0 46 39
95 87 88 86 104 114 77 141 -23 23 -44 11 -131 -76z"/>
</g>
</svg>
