<?xml version="1.0" standalone="no"?>
<!DOCTYPE svg PUBLIC "-//W3C//DTD SVG 20010904//EN"
 "http://www.w3.org/TR/2001/REC-SVG-20010904/DTD/svg10.dtd">
<svg version="1.0" xmlns="http://www.w3.org/2000/svg"
 width="225.000000pt" height="225.000000pt" viewBox="0 0 225.000000 225.000000"
 preserveAspectRatio="xMidYMid meet">

<g transform="translate(0.000000,225.000000) scale(0.100000,-0.100000)"
fill="#000000" stroke="none">
<path d="M1912 1855 c-74 -30 -229 -101 -345 -156 -117 -56 -293 -140 -392
-186 -99 -47 -281 -135 -405 -195 -124 -61 -307 -150 -407 -199 -169 -83 -202
-106 -174 -123 5 -3 76 -17 157 -31 82 -14 219 -41 305 -60 85 -19 158 -35
162 -35 4 0 7 -146 7 -325 0 -311 1 -325 19 -325 13 0 62 61 160 197 77 109
155 215 173 235 l33 37 170 -107 c94 -59 203 -129 243 -156 48 -32 76 -46 82
-40 6 6 29 100 51 210 47 232 80 367 154 629 73 257 166 636 163 659 -2 11 -7
21 -13 22 -5 2 -70 -21 -143 -51z m-22 -75 c-14 -7 -259 -203 -470 -375 -40
-33 -188 -158 -329 -278 -140 -120 -260 -216 -267 -213 -21 8 -320 72 -427 92
-53 10 -97 20 -96 23 0 6 441 223 749 370 91 43 266 127 390 186 295 142 454
214 460 208 3 -2 -2 -8 -10 -13z m71 -157 c-22 -88 -65 -249 -96 -359 -65
-230 -123 -463 -160 -649 -14 -71 -28 -138 -31 -147 -4 -14 -25 -4 -117 56
-62 39 -203 128 -315 196 -111 68 -202 127 -202 130 0 4 57 63 128 131 70 67
284 278 476 467 191 188 350 341 352 339 2 -2 -14 -76 -35 -164z m-557 -361
l-421 -417 -21 -80 c-11 -44 -35 -144 -53 -222 -18 -79 -35 -143 -38 -143 -3
0 -5 110 -3 245 l3 245 147 127 c231 201 789 661 802 662 3 0 -185 -188 -416
-417z m-320 -503 c36 -23 66 -43 66 -46 0 -3 -31 -46 -68 -96 -38 -51 -90
-123 -116 -160 -27 -37 -50 -67 -51 -65 -4 4 83 386 90 399 8 13 7 13 79 -32z"/>
<path d="M730 1126 c-94 -54 -111 -68 -90 -81 13 -8 221 106 217 120 -7 21
-35 12 -127 -39z"/>
<path d="M783 1064 c-43 -26 -51 -38 -34 -48 11 -7 114 46 119 62 6 21 -40 13
-85 -14z"/>
</g>
</svg>
